<svg xmlns="http://www.w3.org/2000/svg" viewBox="0 0 100 100" fill="none">
  <path d="M72.3 84.1L27.7 20.3c-2.4-3.5-7.2-4.5-10.8-2.1L4.8 26.6c-3.6 2.4-4.6 7.3-2.1 10.8L47.4 99.8c2.4 3.5 7.2 4.5 10.8 2.1l12.1-8.4c3.5-2.5 4.5-7.4 2-10.8z" fill="#FBBC05" />
  <path d="M82.1 15.6L37.4 79.4c-2.4 3.5-7.2 4.5-10.8 2.1l-1.6-1.1L70.3 10.5l1.6 1.1c3.5 2.4 4.5 7.2 2.1 10.8z" fill="#4285F4" />
  <path d="M69.8 11.2c-5-7.1-15-9.1-22.1-4.1l-42 29.4C.6 40 1.2 47.7 7.1 51.9l2.8 2 57.1-40.7-2.8-2z" fill="#34A853" />
</svg>
