<svg xmlns="http://www.w3.org/2000/svg" viewBox="0 0 512 512" fill="#0081FB">
  <path d="M488 261.8C488 178.5 423 112 340.4 112c-42.3 0-80.4 17.7-107.9 46.2l-23.7 24.6-23.7-24.6C157.6 129.7 119.5 112 77.2 112 12.8 112-42 178.5-42 261.8c0 83.2 54.8 149.8 119.2 149.8 42.3 0 80.4-17.7 107.9-46.2l23.7-24.6 23.7 24.6c27.5 28.5 65.6 46.2 107.9 46.2 64.4 0 119.2-66.6 119.2-149.8zM245.5 288.6c-17-19-35.4-38.4-53-57.8-19.4-21.3-43.2-35.6-70.3-35.6-42.7 0-77.2 36.3-77.2 81.2 0 44.9 34.5 81.2 77.2 81.2 27.1 0 50.9-14.3 70.3-35.6 17.6-19.4 36-38.8 53-57.8zm110.8 45.6c19.4 21.3 43.2 35.6 70.3 35.6 42.7 0 77.2-36.3 77.2-81.2 0-44.9-34.5-81.2-77.2-81.2-27.1 0-50.9 14.3-70.3 35.6-17.6 19.4-36 38.8-53 57.8 17 19 35.4 38.4 53 57.8z"/>
</svg>
